name analog
datacolumns 19
datarows 23
range 0.585 0.596
endheader
time	ground_force_vx	ground_force_vy	ground_force_vz	ground_force_px	ground_force_py	ground_force_pz	l_ground_force_vx	l_ground_force_vy	l_ground_force_vz	l_ground_force_px	l_ground_force_py	l_ground_force_pz	ground_torque_x	ground_torque_y	ground_torque_z	l_ground_torque_x	l_ground_torque_y	l_ground_torque_z
0.585	-0.0	-0.0	-0.0	-0.0	-0.0	-0.0	10.01266384124756	1.0975096225738523	-655.4605712890625	-0.0	-0.0	-0.0	-0.0	-0.0	-0.0	181216.71875	-40508.68359375	74.99895477294922
0.5855	-0.0	-0.0	-0.0	-0.0	-0.0	-0.0	9.516997337341309	1.312876582145691	-658.0489501953125	-0.0	-0.0	-0.0	-0.0	-0.0	-0.0	181932.953125	-40733.71484375	-204.87387084960935
0.586	-0.0	-0.0	-0.0	-0.0	-0.0	-0.0	8.883882522583008	2.6369028091430664	-663.5878295898438	-0.0	-0.0	-0.0	-0.0	-0.0	-0.0	182589.984375	-41348.94921875	-408.30859375
0.5865	-0.0	-0.0	-0.0	-0.0	-0.0	-0.0	8.262764930725098	3.671653032302856	-664.7845458984375	-0.0	-0.0	-0.0	-0.0	-0.0	-0.0	183259.90625	-41657.15234375	-493.24560546875
0.587	-0.0	-0.0	-0.0	-0.0	-0.0	-0.0	8.161392211914062	3.797832489013672	-666.2305908203125	-0.0	-0.0	-0.0	-0.0	-0.0	-0.0	183659.5	-41828.76953125	-794.1600952148438
0.5875	-0.0	-0.0	-0.0	-0.0	-0.0	-0.0	6.882297515869141	4.114138603210449	-665.0324096679688	-0.0	-0.0	-0.0	-0.0	-0.0	-0.0	183565.921875	-41733.6171875	-994.0159301757812
0.588	-0.0	-0.0	-0.0	-0.0	-0.0	-0.0	5.802966117858887	3.974475860595703	-662.1901245117188	-0.0	-0.0	-0.0	-0.0	-0.0	-0.0	182553.0	-41710.859375	-1151.7611083984375
0.5885	-0.0	-0.0	-0.0	-0.0	-0.0	-0.0	5.536413192749023	3.685387372970581	-656.95263671875	-0.0	-0.0	-0.0	-0.0	-0.0	-0.0	181310.96875	-41577.5703125	-1215.403076171875
0.589	-0.0	-0.0	-0.0	-0.0	-0.0	-0.0	5.7372918128967285	2.8143861293792725	-650.922607421875	-0.0	-0.0	-0.0	-0.0	-0.0	-0.0	179101.421875	-40994.22265625	-1076.7764892578125
0.5895	-0.0	-0.0	-0.0	-0.0	-0.0	-0.0	6.487720966339111	1.516175389289856	-640.6466674804688	-0.0	-0.0	-0.0	-0.0	-0.0	-0.0	176175.46875	-40573.328125	-783.0764770507812
0.59	-0.0	-0.0	-0.0	-0.0	-0.0	-0.0	7.362995147705078	0.2649650573730469	-629.6719360351562	-0.0	-0.0	-0.0	-0.0	-0.0	-0.0	172522.46875	-40001.9609375	-215.22235107421875
0.5905	-0.0	-0.0	-0.0	-0.0	-0.0	-0.0	8.184471130371094	-1.4321753978729248	-615.7217407226562	-0.0	-0.0	-0.0	-0.0	-0.0	-0.0	168789.203125	-39438.83984375	178.25604248046875
0.591	-0.0	-0.0	-0.0	-0.0	-0.0	-0.0	9.048500061035156	-2.5114855766296387	-601.9373779296875	-0.0	-0.0	-0.0	-0.0	-0.0	-0.0	164462.078125	-38529.5078125	708.6279907226562
0.5915	-0.0	-0.0	-0.0	-0.0	-0.0	-0.0	9.769447326660156	-3.4445457458496094	-585.9844970703125	-0.0	-0.0	-0.0	-0.0	-0.0	-0.0	160223.625	-37886.5234375	1085.27490234375
0.592	-0.0	-0.0	-0.0	-0.0	-0.0	-0.0	11.011258125305176	-4.543030738830566	-570.53515625	-0.0	-0.0	-0.0	-0.0	-0.0	-0.0	155661.03125	-36821.90625	1627.129638671875
0.5925	-0.0	-0.0	-0.0	-0.0	-0.0	-0.0	11.621112823486328	-4.9569621086120605	-555.1077880859375	-0.0	-0.0	-0.0	-0.0	-0.0	-0.0	151472.828125	-35966.8359375	1985.179931640625
0.593	-0.0	-0.0	-0.0	-0.0	-0.0	-0.0	12.480127334594728	-4.681049346923828	-541.60205078125	-0.0	-0.0	-0.0	-0.0	-0.0	-0.0	147450.078125	-35239.1171875	2330.876708984375
0.5935	-0.0	-0.0	-0.0	-0.0	-0.0	-0.0	12.880627632141112	-4.36273717880249	-528.266357421875	-0.0	-0.0	-0.0	-0.0	-0.0	-0.0	143739.25	-34391.88671875	2599.574462890625
0.594	-0.0	-0.0	-0.0	-0.0	-0.0	-0.0	14.22543716430664	-3.698986768722534	-516.7027587890625	-0.0	-0.0	-0.0	-0.0	-0.0	-0.0	140768.84375	-33913.45703125	2945.917724609375
0.5945	-0.0	-0.0	-0.0	-0.0	-0.0	-0.0	15.920920372009276	-2.727595567703247	-504.90423583984375	-0.0	-0.0	-0.0	-0.0	-0.0	-0.0	137765.4375	-33441.3515625	3306.823974609375
0.595	-0.0	-0.0	-0.0	-0.0	-0.0	-0.0	18.3342227935791	-2.070433616638184	-496.6073913574219	-0.0	-0.0	-0.0	-0.0	-0.0	-0.0	134752.765625	-33008.453125	4076.487060546875
0.5955	-0.0	-0.0	-0.0	-0.0	-0.0	-0.0	20.522619247436523	-1.8938671350479128	-486.1736755371094	-0.0	-0.0	-0.0	-0.0	-0.0	-0.0	131992.5	-32449.177734375	4668.4072265625
0.596	-0.0	-0.0	-0.0	-0.0	-0.0	-0.0	21.78349876403809	-1.452328085899353	-476.1640625	-0.0	-0.0	-0.0	-0.0	-0.0	-0.0	129577.7890625	-31819.5703125	5091.01953125
